<?xml version="1.0" standalone="no"?>
<!DOCTYPE svg PUBLIC "-//W3C//DTD SVG 20010904//EN"
 "http://www.w3.org/TR/2001/REC-SVG-20010904/DTD/svg10.dtd">
<svg version="1.0" xmlns="http://www.w3.org/2000/svg"
 width="260.000000pt" height="260.000000pt" viewBox="0 0 260.000000 260.000000"
 preserveAspectRatio="xMidYMid meet">
<metadata>
Created by potrace 1.11, written by Peter Selinger 2001-2013
</metadata>
<g transform="translate(0.000000,260.000000) scale(0.100000,-0.100000)"
fill="#000000" stroke="none">
<path d="M930 2419 c-35 -14 -40 -26 -40 -97 0 -61 -1 -63 -30 -68 -16 -4 -30
-10 -30 -14 0 -4 14 -10 30 -13 29 -6 30 -8 30 -69 0 -75 6 -85 51 -98 41 -12
159 -13 159 -2 0 5 -21 13 -47 18 l-48 9 -5 69 c-4 57 -8 70 -25 76 -19 7 -19
7 3 19 19 10 22 20 22 75 0 63 1 64 31 75 18 6 40 11 50 11 11 0 19 5 19 10 0
13 -137 12 -170 -1z"/>
<path d="M1270 2421 c0 -4 18 -11 40 -14 61 -8 70 -20 70 -92 0 -56 2 -63 23
-70 l22 -8 -22 -4 c-21 -4 -23 -10 -23 -66 0 -34 -4 -67 -8 -74 -4 -6 -28 -14
-54 -18 -27 -4 -48 -11 -48 -16 0 -13 141 -11 179 2 31 11 31 11 31 84 0 76 5
85 51 85 10 0 19 5 19 10 0 6 -9 10 -19 10 -46 0 -51 9 -51 85 0 73 0 73 -31
84 -38 13 -179 15 -179 2z"/>
<path d="M2164 2335 c-4 -8 -4 -22 0 -30 4 -12 -6 -15 -59 -15 -37 0 -65 -4
-65 -10 0 -6 32 -10 75 -10 l75 0 0 40 c0 40 -15 54 -26 25z"/>
<path d="M2170 2250 c0 -5 5 -10 10 -10 6 0 10 5 10 10 0 6 -4 10 -10 10 -5 0
-10 -4 -10 -10z"/>
<path d="M2176 2223 c-3 -4 -34 -7 -69 -7 l-62 -1 -3 -42 -3 -43 75 0 c44 0
76 4 76 10 0 6 -29 10 -66 10 l-65 0 3 28 c3 23 8 27 33 27 23 0 31 -5 33 -22
4 -25 22 -32 22 -9 0 7 10 20 23 29 12 8 19 18 16 21 -3 3 -9 3 -13 -1z"/>
<path d="M2170 2110 c0 -5 5 -10 10 -10 6 0 10 5 10 10 0 6 -4 10 -10 10 -5 0
-10 -4 -10 -10z"/>
<path d="M707 2040 c-15 -30 -52 -84 -82 -119 -30 -35 -52 -68 -49 -73 3 -5 1
-7 -4 -6 -5 2 -46 -28 -91 -66 -93 -78 -93 -82 -1 -111 89 -29 272 -119 366
-180 48 -31 84 -50 81 -41 -3 8 -11 33 -17 55 -9 33 -20 46 -68 76 -61 38
-225 105 -309 126 l-52 12 80 55 c80 55 168 142 194 192 12 23 12 34 -3 81
l-17 54 -28 -55z"/>
<path d="M1638 2041 l-17 -56 31 -48 c36 -56 108 -123 198 -183 36 -24 57 -44
48 -44 -25 0 -191 -56 -255 -86 -124 -58 -150 -80 -167 -137 -8 -28 -14 -52
-13 -54 2 -1 32 18 67 43 78 54 276 152 383 190 42 14 77 30 77 34 0 5 -33 36
-72 70 -98 83 -201 202 -235 271 l-29 57 -16 -57z"/>
<path d="M2042 2048 c3 -42 4 -43 38 -43 31 0 35 3 40 30 3 18 12 31 23 33 14
3 17 -4 17 -32 0 -25 4 -36 15 -36 11 0 15 11 15 40 0 35 -3 40 -27 46 -36 9
-57 -7 -61 -45 -5 -47 -36 -38 -40 12 -2 20 -8 37 -13 37 -6 0 -9 -19 -7 -42z"/>
<path d="M824 2002 c-102 -120 -101 -237 3 -352 l35 -40 89 0 89 0 0 70 c0 95
15 105 155 105 140 0 155 -10 155 -105 l0 -70 95 0 95 0 40 52 c52 65 70 108
70 167 0 56 -25 112 -75 169 l-37 42 -94 0 -94 0 0 -90 0 -90 45 0 45 0 0 87
0 87 31 -30 c17 -16 44 -51 60 -79 52 -89 36 -170 -50 -265 l-40 -45 -1 63 c0
56 -3 67 -28 92 -40 40 -100 55 -222 55 -178 0 -240 -38 -240 -147 l0 -59 -42
48 c-48 56 -77 115 -78 159 0 38 40 118 84 167 19 20 36 37 38 37 2 0 3 -38 1
-85 l-3 -85 45 0 45 0 0 90 0 90 -92 -1 -93 -1 -31 -36z"/>
<path d="M1160 1945 l0 -85 35 0 35 0 0 85 0 85 -35 0 -35 0 0 -85z"/>
<path d="M2100 1850 c0 -16 5 -30 10 -30 6 0 10 9 10 20 0 14 7 20 23 20 16 0
23 -5 22 -18 -2 -30 -15 -42 -49 -42 -38 0 -56 15 -56 47 0 13 -4 23 -10 23
-16 0 -11 -56 7 -71 20 -17 97 -17 118 1 8 7 15 28 15 46 0 34 -1 34 -45 34
-43 0 -45 -1 -45 -30z"/>
<path d="M2085 1761 l60 -6 -52 -29 c-29 -16 -53 -33 -53 -38 0 -4 34 -8 75
-8 43 0 75 4 75 10 0 6 -24 10 -52 10 l-53 1 47 24 c73 38 69 45 -24 43 -82
-1 -82 -1 -23 -7z"/>
<path d="M2040 1660 c0 -6 32 -10 75 -10 43 0 75 4 75 10 0 6 -32 10 -75 10
-43 0 -75 -4 -75 -10z"/>
<path d="M2040 1600 c0 -22 5 -40 10 -40 6 0 10 7 10 15 0 12 14 15 65 15 37
0 65 4 65 10 0 6 -28 10 -65 10 -51 0 -65 3 -65 15 0 8 -4 15 -10 15 -5 0 -10
-18 -10 -40z"/>
<path d="M1360 1561 c-65 -28 -65 -28 -105 -10 -46 21 -182 26 -236 8 -57 -19
-69 -41 -69 -130 l0 -79 45 0 45 0 0 79 c0 97 8 106 95 106 87 0 95 -9 95
-106 l0 -79 41 0 41 0 -7 69 -7 69 71 27 c60 24 71 32 71 52 0 29 -1 29 -80
-6z"/>
<path d="M2164 1555 c-4 -8 -4 -22 0 -30 4 -12 -6 -15 -59 -15 -37 0 -65 -4
-65 -10 0 -6 32 -10 75 -10 l75 0 0 40 c0 40 -15 54 -26 25z"/>
<path d="M730 1281 l0 -199 60 -4 c52 -3 60 -1 60 15 0 12 -8 17 -29 17 -25 0
-29 4 -35 38 -3 20 -6 97 -6 170 l0 132 36 0 c61 0 35 25 -29 28 l-57 3 0
-200z"/>
<path d="M1560 1465 c0 -10 10 -15 30 -15 l30 0 0 -170 0 -170 -30 0 c-19 0
-30 -5 -30 -14 0 -10 16 -15 59 -18 l58 -3 -1 202 -1 203 -57 0 c-45 0 -58 -3
-58 -15z"/>
<path d="M2092 1471 c66 -7 88 -22 72 -49 -8 -12 -30 -19 -70 -23 l-59 -6 62
-1 c78 -2 93 4 93 37 0 42 -17 51 -89 50 l-66 -2 57 -6z"/>
<path d="M2040 1331 c0 -31 4 -41 20 -46 35 -11 59 3 62 38 2 24 8 32 22 32
16 0 20 -7 20 -34 1 -19 7 -36 14 -39 10 -3 12 7 10 39 l-3 44 -40 0 c-38 0
-40 -2 -43 -33 -5 -45 -36 -41 -40 6 -5 45 -22 40 -22 -7z"/>
<path d="M950 1253 c0 -103 5 -113 51 -113 l39 0 0 90 0 90 -45 0 -45 0 0 -67z"/>
<path d="M1351 1230 l2 -90 43 0 44 0 0 90 0 90 -46 0 -45 0 2 -90z"/>
<path d="M1160 1225 l0 -85 35 0 35 0 0 85 0 85 -35 0 -35 0 0 -85z"/>
<path d="M2040 1260 c0 -5 24 -10 53 -11 l52 0 -52 -27 c-29 -14 -53 -30 -53
-34 0 -4 35 -7 78 -6 74 1 75 1 22 7 l-55 6 52 30 c29 17 53 33 53 38 0 4 -34
7 -75 7 -43 0 -75 -4 -75 -10z"/>
<path d="M2070 1158 c-37 -20 -40 -70 -5 -86 36 -16 76 -15 103 4 25 17 29 56
8 73 -22 19 -78 23 -106 9z m87 -20 c22 -36 1 -61 -48 -56 -39 4 -59 29 -40
52 16 19 77 21 88 4z"/>
<path d="M883 1086 c-24 -33 -110 -137 -192 -231 -83 -93 -158 -184 -167 -201
-30 -55 -17 -72 118 -156 147 -90 338 -226 403 -286 l47 -43 -6 58 c-12 99
-21 115 -94 170 -85 65 -231 151 -326 193 l-74 33 52 44 c86 75 265 255 291
293 l25 36 -16 74 c-8 41 -16 75 -17 76 -1 1 -21 -26 -44 -60z"/>
<path d="M1480 1092 c-6 -31 -13 -67 -15 -79 -4 -16 9 -38 43 -80 52 -62 214
-219 281 -273 l40 -33 -117 -57 c-116 -57 -267 -151 -329 -206 -28 -25 -34
-39 -44 -102 -6 -41 -9 -75 -7 -77 2 -3 15 6 28 18 80 72 244 189 410 292 69
42 128 82 132 89 16 24 6 63 -25 102 -17 22 -88 104 -157 183 -69 79 -148 174
-177 212 l-52 69 -11 -58z"/>
<path d="M960 1091 c0 -16 25 -25 175 -62 96 -24 175 -46 175 -49 0 -3 -79
-25 -175 -49 -160 -39 -175 -45 -175 -65 0 -21 5 -21 228 36 125 31 236 61
247 66 19 9 19 9 -1 20 -17 9 -451 122 -469 122 -3 0 -5 -9 -5 -19z"/>
<path d="M2040 1016 c0 -28 5 -36 30 -46 32 -13 84 -8 107 11 19 16 17 69 -3
69 -10 0 -14 -7 -13 -22 5 -34 -8 -48 -45 -48 -38 0 -56 15 -56 47 0 13 -4 23
-10 23 -5 0 -10 -15 -10 -34z"/>
<path d="M1205 841 c-260 -67 -266 -69 -245 -81 9 -5 115 -34 235 -65 121 -31
228 -59 238 -62 15 -4 18 0 15 19 -3 21 -18 27 -183 69 -205 53 -206 42 5 94
185 46 180 44 180 65 0 11 -6 20 -12 19 -7 0 -112 -26 -233 -58z"/>
<path d="M2100 848 c0 -30 -26 -39 -36 -13 -9 22 -24 18 -24 -5 0 -11 6 -20
13 -21 127 -10 137 -8 137 35 0 32 -1 33 -45 32 -42 -1 -45 -3 -45 -28z m68
-10 c-3 -7 -13 -13 -23 -13 -10 0 -20 6 -22 13 -3 7 5 12 22 12 17 0 25 -5 23
-12z"/>
<path d="M2042 678 c3 -42 4 -43 38 -43 32 0 35 3 40 35 3 23 11 36 23 38 14
3 17 -4 17 -37 0 -30 4 -41 16 -41 12 0 14 9 12 43 -3 42 -3 42 -43 42 -38 0
-40 -2 -45 -35 -7 -49 -34 -47 -38 3 -2 20 -8 37 -13 37 -6 0 -9 -19 -7 -42z"/>
<path d="M965 485 c190 -172 208 -185 243 -185 35 0 53 13 240 182 l202 183
-66 3 -66 3 -127 -118 c-69 -65 -138 -129 -153 -142 l-27 -23 -153 141 -152
141 -73 0 -73 0 205 -185z"/>
<path d="M2044 611 c3 -5 17 -12 30 -15 14 -3 38 -11 53 -17 28 -11 28 -11
-26 -28 -30 -9 -56 -22 -58 -28 -3 -8 24 -3 71 13 42 14 76 29 76 33 0 6 -126
51 -144 51 -4 0 -5 -4 -2 -9z"/>
<path d="M2040 465 l0 -35 75 0 75 0 0 35 c0 24 -5 35 -15 35 -10 0 -15 -10
-15 -30 0 -29 -1 -30 -50 -30 -49 0 -50 1 -50 30 0 17 -4 30 -10 30 -5 0 -10
-16 -10 -35z"/>
<path d="M2100 475 c0 -14 5 -25 10 -25 6 0 10 11 10 25 0 14 -4 25 -10 25 -5
0 -10 -11 -10 -25z"/>
<path d="M2052 398 c-7 -7 -12 -27 -12 -45 l0 -33 75 0 75 0 0 33 c0 18 -5 38
-12 45 -16 16 -110 16 -126 0z m94 -6 c6 -4 13 -17 16 -29 6 -22 3 -23 -48
-23 -47 0 -54 3 -54 20 0 31 56 52 86 32z"/>
</g>
</svg>
